<svg xmlns="http://www.w3.org/2000/svg" width="636" height="358" viewBox="0 0 636 358">
<rect width="636" height="358" fill="#1E1E1E"/>
<text x="18" y="26" font-family="DejaVu Sans Mono, monospace" font-size="13" font-weight="bold" fill="#D4D4D4">demo.tex — explcheck diagnostics</text><text x="18.0" y="54" font-family="DejaVu Sans Mono, monospace" font-size="13" fill="#DCDCAA" xml:space="preserve">\</text><text x="26.4" y="54" font-family="DejaVu Sans Mono, monospace" font-size="13" fill="#DCDCAA" xml:space="preserve">ExplSyntaxOn</text><text x="18.0" y="76" font-family="DejaVu Sans Mono, monospace" font-size="13" fill="#6A9955" xml:space="preserve">%</text><text x="26.4" y="76" font-family="DejaVu Sans Mono, monospace" font-size="13" fill="#D4D4D4" xml:space="preserve"> w415: unused variable</text><text x="18.0" y="98" font-family="DejaVu Sans Mono, monospace" font-size="13" fill="#DCDCAA" xml:space="preserve">\tl_new:N</text><text x="102.0" y="98" font-family="DejaVu Sans Mono, monospace" font-size="13" fill="#9CDCFE" xml:space="preserve">\l__demo_unused_tl</text><text x="18.0" y="120" font-family="DejaVu Sans Mono, monospace" font-size="13" fill="#6A9955" xml:space="preserve">%</text><text x="26.4" y="120" font-family="DejaVu Sans Mono, monospace" font-size="13" fill="#D4D4D4" xml:space="preserve"> s103 would need &gt;80 cols; here trigger w401 unused private function</text><text x="18.0" y="142" font-family="DejaVu Sans Mono, monospace" font-size="13" fill="#DCDCAA" xml:space="preserve">\cs_new:Npn</text><text x="118.8" y="142" font-family="DejaVu Sans Mono, monospace" font-size="13" fill="#D4D4D4" xml:space="preserve">\</text><text x="127.2" y="142" font-family="DejaVu Sans Mono, monospace" font-size="13" fill="#D4D4D4" xml:space="preserve">__demo_never_called:n</text><text x="303.6" y="142" font-family="DejaVu Sans Mono, monospace" font-size="13" fill="#D4D4D4" xml:space="preserve"> #1 { #1 }</text><text x="18.0" y="164" font-family="DejaVu Sans Mono, monospace" font-size="13" fill="#6A9955" xml:space="preserve">%</text><text x="26.4" y="164" font-family="DejaVu Sans Mono, monospace" font-size="13" fill="#D4D4D4" xml:space="preserve"> valid usage</text><text x="18.0" y="186" font-family="DejaVu Sans Mono, monospace" font-size="13" fill="#DCDCAA" xml:space="preserve">\cs_new:Npn</text><text x="118.8" y="186" font-family="DejaVu Sans Mono, monospace" font-size="13" fill="#D4D4D4" xml:space="preserve">\</text><text x="127.2" y="186" font-family="DejaVu Sans Mono, monospace" font-size="13" fill="#D4D4D4" xml:space="preserve">__demo_main:n</text><text x="236.4" y="186" font-family="DejaVu Sans Mono, monospace" font-size="13" fill="#D4D4D4" xml:space="preserve"> #1</text><text x="18.0" y="208" font-family="DejaVu Sans Mono, monospace" font-size="13" fill="#D4D4D4" xml:space="preserve">  { </text><text x="51.6" y="208" font-family="DejaVu Sans Mono, monospace" font-size="13" fill="#DCDCAA" xml:space="preserve">\tl_set:Nn</text><text x="144.0" y="208" font-family="DejaVu Sans Mono, monospace" font-size="13" fill="#9CDCFE" xml:space="preserve">\l_tmpa_tl</text><text x="228.0" y="208" font-family="DejaVu Sans Mono, monospace" font-size="13" fill="#D4D4D4" xml:space="preserve"> {#1} }</text><text x="18.0" y="230" font-family="DejaVu Sans Mono, monospace" font-size="13" fill="#DCDCAA" xml:space="preserve">\</text><text x="26.4" y="230" font-family="DejaVu Sans Mono, monospace" font-size="13" fill="#DCDCAA" xml:space="preserve">ExplSyntaxOff</text><path d="M 102 102 q 2 3 4 0 q 2 3 4 0 q 2 3 4 0 q 2 3 4 0 q 2 3 4 0 q 2 3 4 0 q 2 3 4 0 q 2 3 4 0 q 2 3 4 0 q 2 3 4 0 q 2 3 4 0 q 2 3 4 0 q 2 3 4 0 q 2 3 4 0 q 2 3 4 0 q 2 3 4 0 q 2 3 4 0 q 2 3 4 0 q 2 3 4 0 q 2 3 4 0 q 2 3 4 0 q 2 3 4 0 q 2 3 4 0 q 2 3 4 0 q 2 3 4 0 q 2 3 4 0 q 2 3 4 0 q 2 3 4 0 q 2 3 4 0 q 2 3 4 0 q 2 3 4 0 q 2 3 4 0 q 2 3 4 0 q 2 3 4 0 q 2 3 4 0 q 2 3 4 0" fill="none" stroke="#CCA700" stroke-width="1.2"/><path d="M 18 146 q 2 3 4 0 q 2 3 4 0 q 2 3 4 0 q 2 3 4 0 q 2 3 4 0 q 2 3 4 0 q 2 3 4 0 q 2 3 4 0 q 2 3 4 0 q 2 3 4 0 q 2 3 4 0 q 2 3 4 0 q 2 3 4 0 q 2 3 4 0 q 2 3 4 0 q 2 3 4 0 q 2 3 4 0 q 2 3 4 0 q 2 3 4 0 q 2 3 4 0 q 2 3 4 0 q 2 3 4 0 q 2 3 4 0 q 2 3 4 0 q 2 3 4 0 q 2 3 4 0 q 2 3 4 0 q 2 3 4 0 q 2 3 4 0 q 2 3 4 0 q 2 3 4 0 q 2 3 4 0 q 2 3 4 0 q 2 3 4 0 q 2 3 4 0 q 2 3 4 0 q 2 3 4 0 q 2 3 4 0 q 2 3 4 0 q 2 3 4 0 q 2 3 4 0 q 2 3 4 0 q 2 3 4 0 q 2 3 4 0 q 2 3 4 0 q 2 3 4 0 q 2 3 4 0 q 2 3 4 0 q 2 3 4 0 q 2 3 4 0 q 2 3 4 0 q 2 3 4 0 q 2 3 4 0 q 2 3 4 0 q 2 3 4 0 q 2 3 4 0 q 2 3 4 0 q 2 3 4 0 q 2 3 4 0 q 2 3 4 0 q 2 3 4 0 q 2 3 4 0 q 2 3 4 0 q 2 3 4 0 q 2 3 4 0 q 2 3 4 0 q 2 3 4 0 q 2 3 4 0 q 2 3 4 0 q 2 3 4 0 q 2 3 4 0 q 2 3 4 0 q 2 3 4 0 q 2 3 4 0 q 2 3 4 0 q 2 3 4 0" fill="none" stroke="#CCA700" stroke-width="1.2"/><path d="M 18 190 q 2 3 4 0 q 2 3 4 0 q 2 3 4 0 q 2 3 4 0 q 2 3 4 0 q 2 3 4 0 q 2 3 4 0 q 2 3 4 0 q 2 3 4 0 q 2 3 4 0 q 2 3 4 0 q 2 3 4 0 q 2 3 4 0 q 2 3 4 0 q 2 3 4 0 q 2 3 4 0 q 2 3 4 0 q 2 3 4 0 q 2 3 4 0 q 2 3 4 0 q 2 3 4 0 q 2 3 4 0 q 2 3 4 0 q 2 3 4 0 q 2 3 4 0 q 2 3 4 0 q 2 3 4 0 q 2 3 4 0 q 2 3 4 0 q 2 3 4 0 q 2 3 4 0 q 2 3 4 0 q 2 3 4 0 q 2 3 4 0 q 2 3 4 0 q 2 3 4 0 q 2 3 4 0 q 2 3 4 0 q 2 3 4 0 q 2 3 4 0 q 2 3 4 0 q 2 3 4 0 q 2 3 4 0 q 2 3 4 0 q 2 3 4 0 q 2 3 4 0 q 2 3 4 0 q 2 3 4 0 q 2 3 4 0 q 2 3 4 0 q 2 3 4 0 q 2 3 4 0 q 2 3 4 0 q 2 3 4 0 q 2 3 4 0 q 2 3 4 0 q 2 3 4 0 q 2 3 4 0 q 2 3 4 0" fill="none" stroke="#CCA700" stroke-width="1.2"/><path d="M 18 190 q 2 3 4 0 q 2 3 4 0 q 2 3 4 0 q 2 3 4 0 q 2 3 4 0 q 2 3 4 0 q 2 3 4 0 q 2 3 4 0 q 2 3 4 0 q 2 3 4 0 q 2 3 4 0 q 2 3 4 0 q 2 3 4 0 q 2 3 4 0 q 2 3 4 0 q 2 3 4 0 q 2 3 4 0 q 2 3 4 0 q 2 3 4 0 q 2 3 4 0 q 2 3 4 0 q 2 3 4 0 q 2 3 4 0 q 2 3 4 0 q 2 3 4 0 q 2 3 4 0 q 2 3 4 0 q 2 3 4 0 q 2 3 4 0 q 2 3 4 0 q 2 3 4 0 q 2 3 4 0 q 2 3 4 0 q 2 3 4 0 q 2 3 4 0 q 2 3 4 0 q 2 3 4 0 q 2 3 4 0 q 2 3 4 0 q 2 3 4 0 q 2 3 4 0 q 2 3 4 0 q 2 3 4 0 q 2 3 4 0 q 2 3 4 0 q 2 3 4 0 q 2 3 4 0 q 2 3 4 0 q 2 3 4 0 q 2 3 4 0 q 2 3 4 0 q 2 3 4 0 q 2 3 4 0 q 2 3 4 0 q 2 3 4 0 q 2 3 4 0 q 2 3 4 0 q 2 3 4 0 q 2 3 4 0 q 2 3 4 0 q 2 3 4 0 q 2 3 4 0 q 2 3 4 0 q 2 3 4 0 q 2 3 4 0 q 2 3 4 0" fill="none" stroke="#CCA700" stroke-width="1.2"/><rect x="18" y="250" width="599.6" height="86" rx="6" fill="#252526" stroke="#454545"/><text x="32" y="276" font-family="DejaVu Sans Mono, monospace" font-size="12.5" fill="#D4D4D4">unused variable or constant: \l__demo_unused_tl</text><text x="32" y="300" font-family="DejaVu Sans Mono, monospace" font-size="12" fill="#9CDCFE">explcheck(<tspan fill="#4FC1FF" text-decoration="underline">w415</tspan>)</text><text x="32" y="322" font-family="DejaVu Sans, sans-serif" font-size="11" fill="#808080">click the code to open the rule documentation</text>
</svg>